<?xml version="1.0" encoding="utf-8"?>
<!-- Generator: Adobe Illustrator 19.0.0, SVG Export Plug-In . SVG Version: 6.00 Build 0)  -->
<svg version="1.2" baseProfile="tiny" xmlns="http://www.w3.org/2000/svg" xmlns:xlink="http://www.w3.org/1999/xlink" x="0px"
	 y="0px" viewBox="0 0 598.5 86" xml:space="preserve">
<g id="Layer_1" display="none">
	<g id="XMLID_1_" display="inline">
		<text transform="matrix(1 0 0 1 -3.0001 80.7838)" font-family="'Gotham-Book'" font-size="105px">F</text>
		<text transform="matrix(1 0 0 1 56.4291 80.7838)" font-family="'Gotham-Book'" font-size="105px">e</text>
		<text transform="matrix(1 0 0 1 110.7133 80.7838)" font-family="'Gotham-Book'" font-size="105px">r</text>
		<text transform="matrix(1 0 0 1 145.3632 80.7838)" font-family="'Gotham-Book'" font-size="105px">m</text>
		<text transform="matrix(1 0 0 1 237.3422 80.7838)" font-family="'Gotham-Book'" font-size="105px">o</text>
		<text transform="matrix(1 0 0 1 297.2963 80.7838)" font-family="'Gotham-Book'" font-size="105px">t</text>
		<text transform="matrix(1 0 0 1 330.266 80.7838)" font-family="'Gotham-Book'" font-size="105px">o</text>
		<text transform="matrix(1 0 0 1 390.2201 80.7838)" font-family="'Gotham-Medium'" font-size="105px">5</text>
		<text transform="matrix(1 0 0 1 447.6547 80.7838)" font-family="'Gotham-Medium'" font-size="105px">H</text>
		<text transform="matrix(1 0 0 1 519.5795 80.7838)" font-family="'Gotham-Medium'" font-size="105px">D</text>
		<g id="XMLID_80_">
			<linearGradient id="XMLID_56_" gradientUnits="userSpaceOnUse" x1="7.3945" y1="44.0352" x2="595.4912" y2="44.0352">
				<stop  offset="0" style="stop-color:#FDC010"/>
				<stop  offset="1" style="stop-color:#F47821"/>
			</linearGradient>
			<path id="XMLID_103_" fill="url(#XMLID_56_)" d="M7.4,7.3h52.8V15H15.7v26.2h39.8v7.6H15.7v32H7.4V7.3z"/>
			<linearGradient id="XMLID_57_" gradientUnits="userSpaceOnUse" x1="7.3945" y1="53.6946" x2="595.4912" y2="53.6946">
				<stop  offset="0" style="stop-color:#FDC010"/>
				<stop  offset="1" style="stop-color:#F47821"/>
			</linearGradient>
			<path id="XMLID_100_" fill="url(#XMLID_57_)" d="M89.4,75c7.5,0,12.7-3,17.1-7.7l5,4.5C106.1,77.9,99.5,82,89.2,82
				c-14.9,0-27.1-11.4-27.1-28.3c0-15.7,11-28.3,26-28.3c16.1,0,25.3,12.8,25.3,28.8c0,0.7,0,1.6-0.1,2.8h-43
				C71.4,68.4,79.8,75,89.4,75z M105.3,50.4c-0.9-9.9-6.6-18.3-17.3-18.3c-9.3,0-16.5,7.8-17.6,18.3H105.3z"/>
			<linearGradient id="XMLID_58_" gradientUnits="userSpaceOnUse" x1="7.3945" y1="53.1603" x2="595.4912" y2="53.1603">
				<stop  offset="0" style="stop-color:#FDC010"/>
				<stop  offset="1" style="stop-color:#F47821"/>
			</linearGradient>
			<path id="XMLID_98_" fill="url(#XMLID_58_)" d="M119.7,26.5h8.1v14.2c4-9,11.9-15.5,22.2-15.1v8.7h-0.6
				c-11.9,0-21.5,8.5-21.5,24.9v21.6h-8.1V26.5z"/>
			<linearGradient id="XMLID_59_" gradientUnits="userSpaceOnUse" x1="7.3945" y1="53.0647" x2="595.4912" y2="53.0647">
				<stop  offset="0" style="stop-color:#FDC010"/>
				<stop  offset="1" style="stop-color:#F47821"/>
			</linearGradient>
			<path id="XMLID_96_" fill="url(#XMLID_59_)" d="M154.4,26.5h8.1v9.1c3.6-5.4,8.4-10.3,17.5-10.3c8.8,0,14.5,4.7,17.4,10.8
				c3.9-6,9.7-10.8,19.1-10.8c12.5,0,20.2,8.4,20.2,21.8v33.6h-8.1V49.1c0-10.5-5.3-16.4-14.1-16.4c-8.2,0-15,6.1-15,16.8v31.3h-8
				V48.9c0-10.2-5.4-16.2-14-16.2c-8.6,0-15.1,7.1-15.1,17.1v31h-8.1V26.5z"/>
			<linearGradient id="XMLID_60_" gradientUnits="userSpaceOnUse" x1="7.3945" y1="53.6946" x2="595.4912" y2="53.6946">
				<stop  offset="0" style="stop-color:#FDC010"/>
				<stop  offset="1" style="stop-color:#F47821"/>
			</linearGradient>
			<path id="XMLID_93_" fill="url(#XMLID_60_)" d="M243,53.9v-0.2c0-15.3,12-28.3,28.3-28.3c16.3,0,28.2,12.8,28.2,28.1v0.2
				c0,15.3-12.1,28.3-28.5,28.3C254.9,82,243,69.2,243,53.9z M291.3,53.9v-0.2c0-11.7-8.7-21.2-20.2-21.2c-11.8,0-19.8,9.6-19.8,21
				v0.2c0,11.7,8.6,21.1,20.1,21.1C283.1,74.8,291.3,65.3,291.3,53.9z"/>
			<linearGradient id="XMLID_61_" gradientUnits="userSpaceOnUse" x1="7.3945" y1="45.925" x2="595.4912" y2="45.925">
				<stop  offset="0" style="stop-color:#FDC010"/>
				<stop  offset="1" style="stop-color:#F47821"/>
			</linearGradient>
			<path id="XMLID_91_" fill="url(#XMLID_61_)" d="M309.2,66.4V33.6h-7.6v-7.1h7.6V10.1h8.1v16.4h17.2v7.1h-17.2v31.7
				c0,6.6,3.7,9,9.1,9c2.7,0,5-0.5,7.9-1.9v6.9c-2.8,1.5-5.9,2.3-9.8,2.3C315.8,81.7,309.2,77.4,309.2,66.4z"/>
			<linearGradient id="XMLID_62_" gradientUnits="userSpaceOnUse" x1="7.3945" y1="53.6946" x2="595.4912" y2="53.6946">
				<stop  offset="0" style="stop-color:#FDC010"/>
				<stop  offset="1" style="stop-color:#F47821"/>
			</linearGradient>
			<path id="XMLID_88_" fill="url(#XMLID_62_)" d="M335.9,53.9v-0.2c0-15.3,12-28.3,28.3-28.3c16.3,0,28.2,12.8,28.2,28.1v0.2
				c0,15.3-12.1,28.3-28.5,28.3C347.8,82,335.9,69.2,335.9,53.9z M384.2,53.9v-0.2c0-11.7-8.7-21.2-20.2-21.2
				c-11.8,0-19.8,9.6-19.8,21v0.2c0,11.7,8.6,21.1,20.1,21.1C376,74.8,384.2,65.3,384.2,53.9z"/>
			<linearGradient id="XMLID_63_" gradientUnits="userSpaceOnUse" x1="7.3945" y1="44.665" x2="595.4912" y2="44.665">
				<stop  offset="0" style="stop-color:#FDC010"/>
				<stop  offset="1" style="stop-color:#F47821"/>
			</linearGradient>
			<path id="XMLID_86_" fill="url(#XMLID_63_)" d="M395.2,70.8l8-9.3c5.9,5.5,12.1,8.8,18.9,8.8c8.8,0,14.6-5,14.6-12.7v-0.2
				c0-7.5-6.3-12.2-15.2-12.2c-5.3,0-9.8,1.5-13.5,3.3l-7.8-5.1l2.1-36h43.9v11.4h-32.8L412.2,36c3.5-1.3,6.7-2.1,11.7-2.1
				c14.3,0,25.5,7.6,25.5,23.1v0.2c0,15-10.9,24.9-27.2,24.9C410.9,82,402.1,77.5,395.2,70.8z"/>
			<linearGradient id="XMLID_64_" gradientUnits="userSpaceOnUse" x1="7.3945" y1="44.0352" x2="595.4912" y2="44.0352">
				<stop  offset="0" style="stop-color:#FDC010"/>
				<stop  offset="1" style="stop-color:#F47821"/>
			</linearGradient>
			<path id="XMLID_84_" fill="url(#XMLID_64_)" d="M457.1,7.3H470v30.6h35.1V7.3H518v73.5h-12.9v-31H470v31h-12.9V7.3z"/>
			<linearGradient id="XMLID_65_" gradientUnits="userSpaceOnUse" x1="7.3945" y1="44.0352" x2="595.4912" y2="44.0352">
				<stop  offset="0" style="stop-color:#FDC010"/>
				<stop  offset="1" style="stop-color:#F47821"/>
			</linearGradient>
			<path id="XMLID_81_" fill="url(#XMLID_65_)" d="M529,7.3h27.4c23.1,0,39.1,15.9,39.1,36.5V44c0,20.7-16,36.7-39.1,36.7H529V7.3z
				 M556.4,69c15.4,0,25.5-10.4,25.5-24.8V44c0-14.4-10.1-25-25.5-25h-14.5v50H556.4z"/>
		</g>
	</g>
</g>
<g id="Layer_2">
	<g id="XMLID_55_">
		<linearGradient id="XMLID_66_" gradientUnits="userSpaceOnUse" x1="7.1821" y1="43.3701" x2="595.2788" y2="43.3701">
			<stop  offset="0" style="stop-color:#FDC010"/>
			<stop  offset="1" style="stop-color:#F47821"/>
		</linearGradient>
		<path id="XMLID_128_" fill="url(#XMLID_66_)" d="M7.2,6.6H60v7.7H15.5v26.2h39.8v7.6H15.5v32H7.2V6.6z"/>
		<linearGradient id="XMLID_67_" gradientUnits="userSpaceOnUse" x1="7.1821" y1="53.0295" x2="595.2788" y2="53.0295">
			<stop  offset="0" style="stop-color:#FDC010"/>
			<stop  offset="1" style="stop-color:#F47821"/>
		</linearGradient>
		<path id="XMLID_125_" fill="url(#XMLID_67_)" d="M89.2,74.3c7.5,0,12.7-3,17.1-7.7l5,4.5c-5.5,6.1-12.1,10.2-22.4,10.2
			c-14.9,0-27.1-11.4-27.1-28.3c0-15.7,11-28.3,26-28.3c16.1,0,25.3,12.8,25.3,28.8c0,0.7,0,1.6-0.1,2.8h-43
			C71.2,67.7,79.6,74.3,89.2,74.3z M105,49.8c-0.9-9.9-6.6-18.3-17.3-18.3c-9.3,0-16.5,7.8-17.6,18.3H105z"/>
		<linearGradient id="XMLID_68_" gradientUnits="userSpaceOnUse" x1="7.1821" y1="52.4953" x2="595.2788" y2="52.4953">
			<stop  offset="0" style="stop-color:#FDC010"/>
			<stop  offset="1" style="stop-color:#F47821"/>
		</linearGradient>
		<path id="XMLID_123_" fill="url(#XMLID_68_)" d="M119.5,25.8h8.1V40c4-9,11.9-15.5,22.2-15.1v8.7h-0.6c-11.9,0-21.5,8.5-21.5,24.9
			v21.6h-8.1V25.8z"/>
		<linearGradient id="XMLID_69_" gradientUnits="userSpaceOnUse" x1="7.1821" y1="52.3997" x2="595.2788" y2="52.3997">
			<stop  offset="0" style="stop-color:#FDC010"/>
			<stop  offset="1" style="stop-color:#F47821"/>
		</linearGradient>
		<path id="XMLID_121_" fill="url(#XMLID_69_)" d="M154.2,25.8h8.1V35c3.6-5.4,8.4-10.3,17.5-10.3c8.8,0,14.5,4.7,17.4,10.8
			c3.9-6,9.7-10.8,19.1-10.8c12.5,0,20.2,8.4,20.2,21.8v33.6h-8.1V48.4c0-10.5-5.3-16.4-14.1-16.4c-8.2,0-15,6.1-15,16.8v31.3h-8
			V48.2c0-10.2-5.4-16.2-14-16.2c-8.6,0-15.1,7.1-15.1,17.1v31h-8.1V25.8z"/>
		<linearGradient id="XMLID_70_" gradientUnits="userSpaceOnUse" x1="7.1821" y1="53.0295" x2="595.2788" y2="53.0295">
			<stop  offset="0" style="stop-color:#FDC010"/>
			<stop  offset="1" style="stop-color:#F47821"/>
		</linearGradient>
		<path id="XMLID_118_" fill="url(#XMLID_70_)" d="M242.8,53.2V53c0-15.3,12-28.3,28.3-28.3c16.3,0,28.2,12.8,28.2,28.1V53
			c0,15.3-12.1,28.3-28.5,28.3C254.7,81.4,242.8,68.6,242.8,53.2z M291.1,53.2V53c0-11.7-8.7-21.2-20.2-21.2
			c-11.8,0-19.8,9.6-19.8,21V53c0,11.7,8.6,21.1,20.1,21.1C282.9,74.1,291.1,64.7,291.1,53.2z"/>
		<linearGradient id="XMLID_71_" gradientUnits="userSpaceOnUse" x1="7.1821" y1="45.26" x2="595.2788" y2="45.26">
			<stop  offset="0" style="stop-color:#FDC010"/>
			<stop  offset="1" style="stop-color:#F47821"/>
		</linearGradient>
		<path id="XMLID_116_" fill="url(#XMLID_71_)" d="M308.9,65.7V33h-7.6v-7.1h7.6V9.5h8.1v16.4h17.2V33H317v31.7c0,6.6,3.7,9,9.1,9
			c2.7,0,5-0.5,7.9-1.9v6.9c-2.8,1.5-5.9,2.3-9.8,2.3C315.6,81.1,308.9,76.8,308.9,65.7z"/>
		<linearGradient id="XMLID_72_" gradientUnits="userSpaceOnUse" x1="7.1821" y1="53.0295" x2="595.2788" y2="53.0295">
			<stop  offset="0" style="stop-color:#FDC010"/>
			<stop  offset="1" style="stop-color:#F47821"/>
		</linearGradient>
		<path id="XMLID_113_" fill="url(#XMLID_72_)" d="M335.7,53.2V53c0-15.3,12-28.3,28.3-28.3c16.3,0,28.2,12.8,28.2,28.1V53
			c0,15.3-12.1,28.3-28.5,28.3C347.6,81.4,335.7,68.6,335.7,53.2z M384,53.2V53c0-11.7-8.7-21.2-20.2-21.2c-11.8,0-19.8,9.6-19.8,21
			V53c0,11.7,8.6,21.1,20.1,21.1C375.8,74.1,384,64.7,384,53.2z"/>
		<linearGradient id="XMLID_73_" gradientUnits="userSpaceOnUse" x1="7.1821" y1="44" x2="595.2788" y2="44">
			<stop  offset="0" style="stop-color:#FDC010"/>
			<stop  offset="1" style="stop-color:#F47821"/>
		</linearGradient>
		<path id="XMLID_111_" fill="url(#XMLID_73_)" d="M394.9,70.1l8-9.3c5.9,5.5,12.1,8.8,18.9,8.8c8.8,0,14.6-5,14.6-12.7v-0.2
			c0-7.5-6.3-12.2-15.2-12.2c-5.3,0-9.8,1.5-13.5,3.3l-7.8-5.1l2.1-36h43.9v11.4h-32.8L412,35.3c3.5-1.3,6.7-2.1,11.7-2.1
			c14.3,0,25.5,7.6,25.5,23.1v0.2c0,15-10.9,24.9-27.2,24.9C410.7,81.4,401.9,76.9,394.9,70.1z"/>
		<linearGradient id="XMLID_74_" gradientUnits="userSpaceOnUse" x1="7.1821" y1="43.3701" x2="595.2788" y2="43.3701">
			<stop  offset="0" style="stop-color:#FDC010"/>
			<stop  offset="1" style="stop-color:#F47821"/>
		</linearGradient>
		<path id="XMLID_109_" fill="url(#XMLID_74_)" d="M456.9,6.6h12.9v30.6h35.1V6.6h12.9v73.5h-12.9v-31h-35.1v31h-12.9V6.6z"/>
		<linearGradient id="XMLID_75_" gradientUnits="userSpaceOnUse" x1="7.1821" y1="43.3701" x2="595.2788" y2="43.3701">
			<stop  offset="0" style="stop-color:#FDC010"/>
			<stop  offset="1" style="stop-color:#F47821"/>
		</linearGradient>
		<path id="XMLID_106_" fill="url(#XMLID_75_)" d="M528.8,6.6h27.4c23.1,0,39.1,15.9,39.1,36.5v0.2c0,20.7-16,36.7-39.1,36.7h-27.4
			V6.6z M556.2,68.4c15.4,0,25.5-10.4,25.5-24.8v-0.2c0-14.4-10.1-25-25.5-25h-14.5v50H556.2z"/>
	</g>
</g>
</svg>
