<?xml version="1.0" encoding="utf-8"?>
<!-- Generator: Adobe Illustrator 19.0.0, SVG Export Plug-In . SVG Version: 6.00 Build 0)  -->
<svg version="1.1" xmlns="http://www.w3.org/2000/svg" xmlns:xlink="http://www.w3.org/1999/xlink" x="0px" y="0px"
	 viewBox="0 0 1850 1850" enable-background="new 0 0 1850 1850" xml:space="preserve">
<g id="Layer_2" display="none">
</g>
<g id="Layer_1">
	<path id="XMLID_10_" fill="#000000" d="M1775,0H75C33.6,0,0,33.6,0,75v1700c0,41.4,33.6,75,75,75h1700c41.4,0,75-33.6,75-75V75
		C1850,33.6,1816.4,0,1775,0z M1800,1750c0,27.5-22.5,50-50,50H100c-27.5,0-50-22.5-50-50V100c0-27.5,22.5-50,50-50h1650
		c27.5,0,50,22.5,50,50V1750z"/>
	<g id="XMLID_12_">
		<g id="XMLID_110_">
			<path id="XMLID_119_" fill="#000000" d="M325.9,343.6H678v51.1H381.2v175h265.3v50.4H381.2v213.5h-55.3V343.6z"/>
			<path id="XMLID_117_" fill="#000000" d="M712.3,343.6h56L946.8,611l178.5-267.4h56v490H1126V436.7L947.5,699.2h-2.8L766.2,437.4
				v396.2h-53.9V343.6z"/>
			<path id="XMLID_115_" fill="#000000" d="M1214.9,764.3l36.4-39.9c42.7,41.3,89.6,67.2,139.3,67.2c70,0,118.3-46.2,118.3-108.5
				v-1.4c0-60.9-50.4-102.9-121.8-102.9c-41.3,0-74.2,12.6-102.9,28l-37.1-24.5l14-238.7h282.1v51.1h-233.8l-10.5,156.8
				c28.7-12.6,56-21.7,96.6-21.7c95.2,0,169.4,56.7,169.4,149.8v1.4c0,95.9-72.8,161-175,161C1319.9,842,1259,808.4,1214.9,764.3z"
				/>
			<path id="XMLID_113_" fill="#000000" d="M325.6,1235.2V833h122.8v397.2c0,129.7,66.9,199.6,176.6,199.6
				c108.8,0,175.6-65.9,175.6-194.6V833h122.8v396.2c0,208.6-117.8,313.4-300.4,313.4C441.4,1542.6,325.6,1437.8,325.6,1235.2z"/>
			<path id="XMLID_111_" fill="#000000" d="M1179.9,1176.3L935.4,833h144.7l173.7,250.5L1428.4,833h140.7l-243.5,341.3l253.5,357.3
				h-144.7l-183.6-264.5l-184.6,264.5H925.4L1179.9,1176.3z"/>
		</g>
	</g>
</g>
</svg>
