<?xml version="1.0" encoding="utf-8"?>
<!-- Generator: Adobe Illustrator 19.0.0, SVG Export Plug-In . SVG Version: 6.00 Build 0)  -->
<svg version="1.1" id="Layer_1" xmlns="http://www.w3.org/2000/svg" xmlns:xlink="http://www.w3.org/1999/xlink" x="0px" y="0px"
	 viewBox="-300 342 110 110" enable-background="new -300 342 110 110" xml:space="preserve">
<g>
	<path fill="#777777" d="M-206.1,435.9c10.7-10.8,16.1-23.7,16.1-38.9s-5.4-28.1-16.1-38.9c-10.8-10.7-23.7-16.1-38.9-16.1
		s-28.1,5.4-38.9,16.1c-10.7,10.8-16.1,23.7-16.1,38.9s5.4,28.1,16.1,38.9c10.8,10.8,23.7,16.1,38.9,16.1S-216.9,446.7-206.1,435.9z
		"/>
	<path fill="#FFFFFF" d="M-251.2,383.6c-1.5-2.3-3.4-4.2-5.8-5.7c-2.4-1.5-5.4-2.3-9.1-2.3c-2.8,0-5.4,0.5-7.7,1.6
		c-2.4,1.1-4.4,2.5-6.1,4.4c-1.7,1.9-3,4.1-4,6.7c-0.9,2.6-1.4,5.4-1.4,8.6c0.1,3.1,0.6,6,1.4,8.6c0.8,2.6,2,4.9,3.7,6.8
		c1.6,1.9,3.7,3.4,6.1,4.4s5.2,1.6,8.5,1.6c4.6,0,8.5-1.2,11.6-3.5c3.1-2.3,5-5.2,5.9-9.8h-6.7c-0.6,2.7-1.8,4.1-3.6,5.4s-4.2,2-7,2
		c-2.2,0-4.1-0.4-5.8-1.1c-1.6-0.7-3-1.7-4-3c-1.1-1.2-1.8-2.7-2.3-4.3c-0.5-1.6-0.7-3.7-0.6-5.5h30.6c0.1-2.5-0.1-4.7-0.7-7.4
		C-248.8,388.5-249.8,385.9-251.2,383.6z M-278.2,393.1c0.1-1.6,0.4-3.1,1-4.5c0.6-1.4,1.4-2.6,2.4-3.7c1-1.1,2.2-1.9,3.6-2.5
		c1.4-0.6,3-0.9,4.7-0.9c1.7,0,3.2,0.3,4.6,0.9s2.6,1.4,3.6,2.5s1.8,2.3,2.5,3.7c0.6,1.4,1,2.9,1.1,4.5
		C-254.7,393.1-278.2,393.1-278.2,393.1z M-221.2,395.3l14.7-19.7h-8.4l-10.7,15l-10.2-15h-9l14.9,20.2l-16,22.5h8.5l11.9-17.7
		l11.9,17.7h9C-204.7,418.4-221.2,395.3-221.2,395.3z"/>
</g>
</svg>
